<?xml version="1.0" encoding="utf-8"?>
<!-- Generator: Adobe Illustrator 21.0.0, SVG Export Plug-In . SVG Version: 6.00 Build 0)  -->
<svg version="1.1" id="Layer_5" xmlns="http://www.w3.org/2000/svg" xmlns:xlink="http://www.w3.org/1999/xlink" x="0px" y="0px"
	 width="600px" height="600px" viewBox="0 0 600 600" style="enable-background:new 0 0 600 600;" xml:space="preserve">
<style type="text/css">
	.st0{fill:#FFFFFF;}
</style>
<g>
	<g>
		<path class="st0" d="M370.725,139.902c0.001,0.132,0.01,0.262,0.01,0.394v-0.393L370.725,139.902z"/>
	</g>
	<path d="M400.758,248.339h-27.809c0.042-23.781,0.303-171.638,0.302-171.765v-0.001c-0.239-17.639-15.965-31.99-35.057-31.99
		c-6.369,0-12.609,1.596-18.045,4.616c-0.545,0.302-89.249,62.469-93.014,65.108c-5.172,3.226-8.385,8.392-8.385,13.48v120.552
		h-27.992c-6.627,0-12,5.373-12,12v286.5c0,6.627,5.373,12,12,12h210c6.627,0,12-5.373,12-12v-286.5
		C412.758,253.712,407.385,248.339,400.758,248.339z M242.25,134.132l88.872-59.915c5.544-3.118,10.582-3.969,13.819-2.336
		c2.124,1.071,3.442,3.198,3.809,6.119v170.339h-106.5V134.132z M388.758,534.839h-186v-180h186V534.839z M388.758,330.839h-186
		v-58.5h186V330.839z"/>
</g>
</svg>
