<?xml version="1.0" encoding="utf-8"?>
<!-- Generator: Adobe Illustrator 16.0.0, SVG Export Plug-In . SVG Version: 6.00 Build 0)  -->
<!DOCTYPE svg PUBLIC "-//W3C//DTD SVG 1.1//EN" "http://www.w3.org/Graphics/SVG/1.1/DTD/svg11.dtd">
<svg version="1.1" id="Layer_1" xmlns="http://www.w3.org/2000/svg" xmlns:xlink="http://www.w3.org/1999/xlink" x="0px" y="0px"
	 width="600px" height="600px" viewBox="0 0 600 600" enable-background="new 0 0 600 600" xml:space="preserve">
<path d="M385.998,49.998l45.251,0.005v162.5h-37.5l-1.391-103.484l-36.109,103.484h-25l-37.5-100v100h-37.5l0.33-162.505h38.08
	l49.09,125.005L385.998,49.998z M556.249,50.003l-42.969,64.323l-44.531-64.328h-36.963l61.963,100.005v62.5h37.5v-62.5l62.5-100
	H556.249z M481.251,475.003l-37.5-75v-162.5h-62.5v-37.5l-25,37.5h-25l-24.479-37.5v37.5h-75.521l0.079-187.506
	c-0.97,0-1.939,0.006-2.907,0.021C120.827,51.575,43.751,141.989,43.751,250.003v150l-37.5,75h137.5c9.301,39.694,42.708,75,100,75
	c56.771,0,90.704-35.306,100-75H481.251z"/>
</svg>
